# xmcd CD database file
#
# Track frame offsets:
#	150
#	24547
#	40072
#	51110
#	72500
#	87500
#	110067
#	131037
#	143620
#	157207
#	179122
#	195242
#	215815
#	231035
#	240435
#	257300
#	273937
#	294202
#
# Disc length: 4103 seconds
#
# Revision: 0
# Processed by: cddbd v1.5.1PL0 Copyright (c) Steve Scherf et al.
# Submitted via: CDex 1.51
#
DISCID=09100512
DTITLE=LUCIANO PAVALOTTI - PAVALOTTI SUPER HITS!
DYEAR=1995
DGENRE=Opera
TTITLE0=カルーソー
TTITLE1=オ・ソレ・ミオ
TTITLE2=女心の歌
TTITLE3=冷たい手を
TTITLE4=星は去りぬ
TTITLE5=カタリ・カタリ
TTITLE6=ヴォラーレ
TTITLE7=フニクリ・フニクラ
TTITLE8=忘れな草
TTITLE9=人知れぬ涙
TTITLE10=夢のように
TTITLE11=花の歌
TTITLE12=セレナード
TTITLE13=マティナータ
TTITLE14=衣装をつけろ
TTITLE15=見よ、恐ろしい火を
TTITLE16=帰れ、ソレントへ
TTITLE17=誰も寝てはならぬ
EXTD=YEAR: 19950421
EXTT0=
EXTT1=
EXTT2=
EXTT3=
EXTT4=
EXTT5=
EXTT6=
EXTT7=
EXTT8=
EXTT9=
EXTT10=
EXTT11=
EXTT12=
EXTT13=
EXTT14=
EXTT15=
EXTT16=
EXTT17=
PLAYORDER=
